PathFileType	4	(X/Y/Z)	/Users/itak/Documents/Research/Walk-IL/dataset/trc/00468_00167.trc
DataRate	CameraRate	NumFrames	NumMarkers	Units	OrigDataRate	OrigDataStartFrame	OrigNumFrames
100.000000	100.000000	4	53	mm	100.000000	477	637
Frame#	Time	RPSI			LPSI			L3			STRN			T10			C7			CLAV			RBAK			LBAK			LSHO			LUPA			LAEL			LAOL			LWTS			LWPS			LFRA			LIFD			LHPS			LHTS			RSHO			RUPA			RAEL			RAOL			RWTS			RWPS			RFRA			RIFD			RHTS			RHPS			RBHD			LFHD			RFHD			LBHD			LHIP			RHIP			RASI			LASI			LKNE			LTHI			LANK			LTIP			LTOE			LMT1			LMT5			LHEE			RKNE			RTHI			RANK			RTIP			RTOE			RMT1			RMT5			RHEE			
		X1	Y1	Z1	X2	Y2	Z2	X3	Y3	Z3	X4	Y4	Z4	X5	Y5	Z5	X6	Y6	Z6	X7	Y7	Z7	X8	Y8	Z8	X9	Y9	Z9	X10	Y10	Z10	X11	Y11	Z11	X12	Y12	Z12	X13	Y13	Z13	X14	Y14	Z14	X15	Y15	Z15	X16	Y16	Z16	X17	Y17	Z17	X18	Y18	Z18	X19	Y19	Z19	X20	Y20	Z20	X21	Y21	Z21	X22	Y22	Z22	X23	Y23	Z23	X24	Y24	Z24	X25	Y25	Z25	X26	Y26	Z26	X27	Y27	Z27	X28	Y28	Z28	X29	Y29	Z29	X30	Y30	Z30	X31	Y31	Z31	X32	Y32	Z32	X33	Y33	Z33	X34	Y34	Z34	X35	Y35	Z35	X36	Y36	Z36	X37	Y37	Z37	X38	Y38	Z38	X39	Y39	Z39	X40	Y40	Z40	X41	Y41	Z41	X42	Y42	Z42	X43	Y43	Z43	X44	Y44	Z44	X45	Y45	Z45	X46	Y46	Z46	X47	Y47	Z47	X48	Y48	Z48	X49	Y49	Z49	X50	Y50	Z50	X51	Y51	Z51	X52	Y52	Z52	X53	Y53	Z53	

478	4.77	-69.62313079833984	931.258056640625	-359.8483276367188	-75.20746612548828	939.1782836914062	-217.6583862304688	-87.0244140625	1035.464233398438	-287.4268188476562	-366.0047607421875	1222.785278320312	-291.8046264648438	-80.38286590576172	1159.51513671875	-271.9816284179688	-152.2890167236328	1426.940185546875	-274.7997131347656	-333.24072265625	1336.396728515625	-283.8775939941406	-75.62545776367188	1310.712524414062	-363.969970703125	-128.3980255126953	1376.66650390625	-174.5598297119141	-238.3814849853516	1390.583740234375	-106.1139602661133	-236.239990234375	1272.41064453125	-7.039092063903809	-268.4466552734375	1056.470703125	18.57575988769531	-178.0028839111328	1035.2529296875	-28.5888557434082	-383.46142578125	898.5376586914062	-83.3621826171875	-357.2226257324219	861.8614501953125	-24.24719429016113	-311.7987670898438	976.8671875	6.148351192474365	-443.3898010253906	751.6802368164062	-93.93099212646484	-388.589599609375	794.6424560546875	-35.30035018920898	-426.9009399414062	824.2526245117188	-88.91767883300781	-197.6454925537109	1402.041870117188	-440.8271484375	-161.0736236572266	1350.385498046875	-513.6629638671875	-103.4489898681641	1077.834716796875	-590.2196044921875	-60.85595321655273	1063.954711914062	-538.952880859375	-177.0928649902344	855.4390258789062	-585.5820922851562	-98.21900939941406	857.4293212890625	-627.4710083007812	-94.49333190917969	1021.088500976562	-605.2501831054688	-147.2060852050781	702.4473876953125	-606.0332641601562	-170.0350646972656	758.8696899414062	-605.2202758789062	-96.79813385009766	771.1207275390625	-634.2463989257812	-251.6423187255859	1619.665893554688	-371.3438110351562	-403.9318237304688	1617.069702148438	-230.1097259521484	-389.2908935546875	1617.08251953125	-360.5963745117188	-255.4019012451172	1626.650634765625	-194.0756530761719	-203.3877105712891	838.3244018554688	-101.0643157958984	-197.6186676025391	843.6426391601562	-504.6810607910156	-294.4766540527344	892.3250732421875	-432.7713012695312	-307.8190002441406	869.1653442382812	-178.8712921142578	-132.3038787841797	427.9952697753906	-158.1125793457031	-187.630615234375	573.4827270507812	-130.6048736572266	29.86178779602051	38.20002746582031	-178.5634918212891	-89.93610382080078	280.1528930664062	-153.2378387451172	-189.6269073486328	38.24673080444336	-283.5774841308594	-110.0513000488281	49.60532760620117	-296.528564453125	-124.7751998901367	37.47835540771484	-182.658447265625	82.77729797363281	49.51879501342773	-235.4318084716797	-385.702392578125	491.8771057128906	-493.2371215820312	-284.6709594726562	730.2183227539062	-522.4539184570312	-520.0697631835938	71.17786407470703	-514.5059814453125	-445.0423889160156	361.4317626953125	-513.144287109375	-708.0107421875	160.0628967285156	-451.37548828125	-648.4801025390625	129.4975433349609	-419.6565246582031	-645.9906616210938	114.3808746337891	-520.6209106445312	-453.8653259277344	48.29797744750977	-473.78759765625	
479	4.78	-78.32499694824219	929.20361328125	-361.8185729980469	-83.18111419677734	937.6085205078125	-219.6910705566406	-95.26185607910156	1033.329956054688	-289.4491577148438	-374.0210876464844	1220.79736328125	-293.385009765625	-88.48623657226562	1157.408569335938	-274.2236633300781	-160.142333984375	1424.842041015625	-277.1082458496094	-341.1814270019531	1334.311279296875	-285.7361450195312	-83.66031646728516	1308.36865234375	-366.1391906738281	-136.0476684570312	1374.735473632812	-176.8205718994141	-245.9718170166016	1388.7373046875	-108.143684387207	-243.4749755859375	1270.447875976562	-9.071196556091309	-275.1466064453125	1054.24169921875	16.24514389038086	-184.6444244384766	1033.469970703125	-31.10798263549805	-389.4502563476562	895.661865234375	-85.51384735107422	-362.8916320800781	859.1305541992188	-26.44330596923828	-318.1001586914062	974.4131469726562	3.877501726150513	-448.5557250976562	748.4790649414062	-96.00225830078125	-393.8551635742188	791.7274169921875	-37.46291732788086	-432.4217224121094	821.10546875	-91.05867004394531	-205.7410583496094	1399.60888671875	-443.0566711425781	-169.1604309082031	1347.736572265625	-515.7705078125	-110.8998184204102	1074.9287109375	-591.018310546875	-68.34291076660156	1061.551025390625	-539.6051025390625	-183.0248260498047	851.989013671875	-585.267822265625	-104.280876159668	854.3375244140625	-627.2279663085938	-101.5971984863281	1018.142700195312	-605.7593994140625	-152.0219573974609	699.1276245117188	-604.5104370117188	-174.3881225585938	754.8235473632812	-603.7503662109375	-102.2654647827148	767.8656616210938	-633.2289428710938	-258.9108581542969	1617.521850585938	-373.7856140136719	-411.0628051757812	1615.67333984375	-232.3962554931641	-396.5462036132812	1615.466064453125	-362.9088745117188	-262.4909362792969	1624.740234375	-196.5081634521484	-210.5484619140625	836.9652099609375	-102.1738891601562	-206.8591156005859	841.4562377929688	-506.0145568847656	-303.6483459472656	890.3449096679688	-433.7412109375	-315.342529296875	867.2095336914062	-179.5392913818359	-136.7089996337891	427.0404968261719	-158.7557373046875	-193.2461700439453	572.240234375	-131.3692169189453	29.82651329040527	38.67207717895508	-178.7846374511719	-92.58989715576172	279.6020202636719	-153.6605072021484	-189.7223358154297	38.15786743164062	-283.6711730957031	-110.1595840454102	49.63099670410156	-296.5384521484375	-124.6982803344727	37.50519943237305	-182.6836395263672	82.63484954833984	50.35250091552734	-235.7317352294922	-394.6088562011719	489.8175964355469	-493.0805053710938	-294.25341796875	728.1979370117188	-523.3480834960938	-536.6262817382812	71.23500823974609	-512.8272705078125	-456.0985717773438	360.2519226074219	-512.3477783203125	-722.8277587890625	163.9212646484375	-449.7875061035156	-663.8714599609375	132.1504821777344	-418.134765625	-661.4248046875	117.0846710205078	-519.138916015625	-470.8980407714844	47.12117385864258	-472.08251953125	
480	4.79	-87.17913055419922	927.1268310546875	-363.8450317382812	-91.29404449462891	935.9937744140625	-221.8047943115234	-103.6270370483398	1031.191528320312	-291.5519714355469	-382.1494140625	1218.815063476562	-295.0690307617188	-96.74093627929688	1155.287353515625	-276.5743408203125	-168.1190643310547	1422.728637695312	-279.5124816894531	-349.2541198730469	1332.242797851562	-287.6793823242188	-91.82270050048828	1306.021728515625	-368.4011840820312	-143.8168029785156	1372.795043945312	-179.1807861328125	-253.6620178222656	1386.889892578125	-110.2630233764648	-250.823974609375	1268.487548828125	-11.20191383361816	-281.9926147460938	1052.033203125	13.82557678222656	-191.4280548095703	1031.698120117188	-33.69495010375977	-395.5524597167969	892.7625122070312	-87.71079254150391	-368.6759338378906	856.3978271484375	-28.66990661621094	-324.5435180664062	971.979736328125	1.546820282936096	-453.7781677246094	745.2410888671875	-98.08126068115234	-399.2328491210938	788.8179931640625	-39.62892150878906	-438.0561218261719	817.9409790039062	-93.21601867675781	-213.959716796875	1397.178833007812	-445.3721923828125	-177.4029083251953	1345.08349609375	-517.9828491210938	-118.590576171875	1072.004516601562	-591.9115600585938	-76.04886627197266	1059.12451171875	-540.3790283203125	-189.1894836425781	848.5458374023438	-584.9633178710938	-110.6677780151367	851.25830078125	-627.065185546875	-108.9816131591797	1015.177856445312	-606.3613891601562	-157.1611938476562	695.8063354492188	-603.0657958984375	-178.8972015380859	750.6963500976562	-602.27978515625	-108.1689224243164	764.5674438476562	-632.272705078125	-266.306396484375	1615.355712890625	-376.3352355957031	-418.3027954101562	1614.28466796875	-234.7653656005859	-403.9126892089844	1613.8515625	-365.3134460449219	-269.6766052246094	1622.813354492188	-199.0477752685547	-217.8528137207031	835.5814819335938	-103.3777084350586	-216.3064422607422	839.2346801757812	-507.4504699707031	-312.9369201660156	888.3167114257812	-434.7969665527344	-323.0057983398438	865.2450561523438	-180.2891082763672	-141.3974914550781	426.057861328125	-159.4013824462891	-199.1111755371094	570.9910278320312	-132.1746978759766	29.76494216918945	39.20771789550781	-178.9605102539062	-95.42534637451172	279.0520935058594	-154.0697479248047	-189.8013458251953	38.07432174682617	-283.7715148925781	-110.281867980957	49.68159484863281	-296.5158386230469	-124.6079940795898	37.53496170043945	-182.6946258544922	82.48928833007812	51.36068344116211	-235.9488525390625	-403.3949890136719	487.5710754394531	-492.9510192871094	-303.7095947265625	725.9818115234375	-524.1383666992188	-552.22265625	71.03272247314453	-511.0221557617188	-466.7639465332031	358.7813720703125	-511.5169372558594	-736.8214721679688	167.2119598388672	-448.3567810058594	-678.509033203125	134.3707733154297	-416.6741943359375	-675.89794921875	119.3443908691406	-517.73095703125	-487.0599670410156	45.71742630004883	-470.152099609375	
481	4.8	-96.21611785888672	925.04296875	-365.9454040527344	-99.58211517333984	934.3543701171875	-224.0169830322266	-112.1381301879883	1029.048706054688	-293.7470397949219	-390.4118957519531	1216.853271484375	-296.84375	-105.1517181396484	1153.1513671875	-279.0332336425781	-176.2154846191406	1420.604736328125	-282.0152587890625	-357.4539489746094	1330.213500976562	-289.7099609375	-100.1235580444336	1303.669189453125	-370.7594604492188	-151.7108306884766	1370.848754882812	-181.6430358886719	-261.4532165527344	1385.054321289062	-112.4770812988281	-258.2949523925781	1266.546142578125	-13.43038082122803	-288.9830017089844	1049.858642578125	11.31588459014893	-198.363525390625	1029.952270507812	-36.35419464111328	-401.7712097167969	889.8460083007812	-89.94220733642578	-374.5677185058594	853.6708984375	-30.92185020446777	-331.1213989257812	969.5762939453125	-0.8412596583366394	-459.042236328125	741.9705200195312	-100.1711578369141	-404.718017578125	785.921142578125	-41.79174041748047	-443.8023681640625	814.761474609375	-95.37580108642578	-222.2998809814453	1394.76513671875	-447.7781066894531	-185.7919464111328	1342.446166992188	-520.3016967773438	-126.5276412963867	1069.077880859375	-592.9076538085938	-83.98640441894531	1056.68701171875	-541.2800903320312	-195.6380920410156	845.1360473632812	-584.6858520507812	-117.3870468139648	848.2045288085938	-626.9909057617188	-116.6551666259766	1012.213195800781	-607.0638427734375	-162.5852813720703	692.4638061523438	-601.6879272460938	-183.6501617431641	746.5404663085938	-600.8508911132812	-114.4902038574219	761.2620239257812	-631.39697265625	-273.8270263671875	1613.171875	-378.9906921386719	-425.65234375	1612.907592773438	-237.2166748046875	-411.3914184570312	1612.242797851562	-367.8088989257812	-276.952880859375	1620.872436523438	-201.6971893310547	-225.3179931640625	834.187255859375	-104.6781845092773	-225.9657897949219	836.9659423828125	-508.9719848632812	-322.3578796386719	886.2256469726562	-435.9379272460938	-330.844482421875	863.2886352539062	-181.1154022216797	-146.3423156738281	425.0649719238281	-160.0349884033203	-205.2013702392578	569.7459106445312	-133.0121459960938	29.67334747314453	39.82319641113281	-179.0802764892578	-98.42784118652344	278.5278625488281	-154.4470367431641	-189.8673553466797	37.99622344970703	-283.872802734375	-110.4250183105469	49.76445770263672	-296.4536743164062	-124.5093536376953	37.56600570678711	-182.6821746826172	82.33056640625	52.56825256347656	-236.0707092285156	-412.0746765136719	485.1170959472656	-492.8308715820312	-313.0658874511719	723.5546264648438	-524.8612670898438	-566.8511352539062	70.50299072265625	-509.119384765625	-477.0614929199219	356.9978637695312	-510.6850891113281	-750.0021362304688	169.8795471191406	-447.0544128417969	-692.3728637695312	136.0950012207031	-415.2588500976562	-689.4290771484375	121.0896301269531	-516.3714599609375	-502.3112487792969	44.0561408996582	-468.0512390136719	
